<svg xmlns="http://www.w3.org/2000/svg" fill-rule="evenodd" stroke-linejoin="round" stroke-miterlimit="2" clip-rule="evenodd" viewBox="0 0 1500 1500"><defs/><g fill-rule="nonzero">
<path d="M707 256.1c-46.4 4.1-91.8 19.7-139 47.9-31.2 18.7-41.7 23.5-60.4 27.4-6.2 1.3-13.3 3.4-15.7 4.6-4.5 2.3-36.8 33-47.7 45.4-8.2 9.2-18.2 24.2-22.7 33.9-1.9 4.1-5.1 13.1-7 19.9-4.8 16.9-5.8 19.1-12.6 28.5-7.7 10.7-8.9 13.6-8.9 22.6 0 9.4 3.2 19 13.3 39.4 4.1 8.4 8.2 18.3 9.1 22 1.7 6.8 13.5 30.7 18.2 36.8 3 4 3 4.2-.6 5-3.9.9-7 4.9-7 9.2 0 4.4 2.5 10.3 4.4 10.4.9.1 2.1.3 2.6.4.6.1 1.9.3 3.1.4 2.7.1 4.9 5.6 6.1 15.1 1 8.5 1.9 10 5.9 10h2.9l-.6-12.1c-.3-8-.1-12.5.6-13.4.6-.7 1-1.7.9-2.1-.5-3 .2-3.4 3.1-1.9 3.3 1.7 3.8 3.6 1.5 5.5-.8.7-1.2 1.6-.9 2.1.9 1.5-.6 5-1.9 4.2-.8-.5-.8-.2.1.9.8 1 1.1 4.2.9 9.9-.2 4.6 0 9.1.4 9.9.4.8.9 6.6 1.2 12.7.3 6.2.8 11.6 1 12 .3.5.4 3.2.3 6.1 0 3 .2 5.6.5 5.7 1.3.9.8 22.5-1.1 40-2.1 20.3-2.6 48.6-1 54.6.5 1.9 2.2 4.7 3.8 6.2 2.8 2.7 10.8 6.1 12.2 5.2 1.4-.9 2.4 1.6 3.1 7.5.4 3 1.2 7.3 1.9 9.5.6 2.2 1.8 7.1 2.5 11 2.8 13.7 3.5 16.7 5.4 24.3 4.7 18.1 5.4 21.1 6.7 29.2.7 4.7 1.6 10.1 1.9 12 1.9 12.7 5 26.2 8 34.5 1.9 5.3 3.5 10.3 3.5 11.2 0 1.8 5.9 16.9 9 22.8 1.1 2.1 2 5.1 2 6.5 0 1.4.9 3.9 1.9 5.7 1.1 1.7 2.5 5 3.1 7.2.6 2.4 1.8 4.2 3 4.6 1.2.4 2.4 2.4 3.5 6 .8 3.1 2.7 6.5 4.2 7.9 1.9 1.8 2.7 3.7 3.1 7.4.2 2.8-3 37.3-7.4 78.9-4.2 40.7-7.5 74.6-7.2 75.4.3.8 23.5 18.5 51.4 39.2 28 20.7 58.6 43.4 68.1 50.4 71.8 53.4 93.4 69.3 94.3 69.3.5 0 31-21.2 67.7-47.2 36.8-25.9 85.3-60.2 107.8-76.1 22.6-15.9 41.6-29.4 42.3-30.1 1.4-1.3-1.2-24.3-14.4-131.6-1.9-15.7-3.6-30.1-3.7-32.1-.1-2.7 1.4-6.8 5.6-15 4.1-8 6-13.2 6.7-17.5.4-3.4 1.4-7.2 2-8.5.7-1.2 1.9-6.7 2.6-12.1.9-6.4 2.3-11.7 4-14.9 4-8.1 7.4-19 7.4-24.4 0-3.2.9-6.8 2.5-10 1.4-2.8 2.5-6.4 2.5-8 0-1.7.9-5.7 2-8.9 1.6-4.4 1.8-6.1.9-7.2-.8-1-.5-3.2 1.5-9.1 1.5-4.8 2.7-11.2 3.1-16.6.6-10.3 1.3-13.7 5.5-27.2 2.1-6.7 3.3-12.5 3.5-17.7.1-5.3.8-8.5 1.9-10 .9-1.3 2.7-3.7 4-5.5 2.7-3.7 11.9-29.2 14.2-39.6 1.6-6.9 1.5-19.6-.2-36.8-.5-4.7 0-7.2 2.5-14.7 2.5-7.2 3.3-11.9 4.2-22.9.6-7.6 1.9-17.2 3-21.5 2.3-9.3 2.4-15.9.3-20.4-1.6-3.3-6-7.8-8.6-8.6-.7-.3 1-3.1 4.4-7.4 5.3-6.5 18.8-27.9 18.8-29.7 0-2 9.3-19.1 16.4-30.2 4.3-6.6 10.5-17.6 13.9-24.5 5.8-11.8 6.2-13 6.6-20.7.4-10-1.3-15.8-7.4-24.8-4-6-4.2-6.8-4.7-15.2-2.2-35.7-39.9-76.4-98.3-106.1-5.5-2.8-14.9-7.4-20.9-10.2-9.5-4.5-11.9-6.2-19.5-13.6-36-35.5-101.9-63.2-162.6-68.4-13.7-1.1-30.7-1.1-44.5.1zm63.5 153.5c46.8 4.6 91.4 16.3 123.3 32.3 8 4 29.5 18 34.3 22.4 2.3 2 2.7 3.4 3.2 10.8.9 11.2 3.1 19.5 11.2 41.9 6.5 17.9 11.5 34.6 11.5 38.2 0 1.6-1 1.8-7.1 1.8-6.5 0-7.4-.2-11.2-3.4-6-4.8-17.1-10.1-31.1-14.8-11-3.7-13.3-4.1-24.6-4.5-14.5-.6-25.8.9-47.9 6.2-8 1.9-20 4.4-26.6 5.5-27.2 4.7-35.2 7.5-41.3 14.5-3.8 4.2-4.6 7-4 13.5l.5 4.8-6.1 1.2c-11.6 2.3-68.6 5.4-68.6 3.7 0-.3.7-2.2 1.6-4.2 3.2-7.7 1.6-15.3-4.3-20.6-6.8-6.2-12.4-8.1-34.3-11.9-9.1-1.6-19.416-2.884-27.716-4.884-24.406-1.082-38.434-3.045-52.934-2.445-11 .4-28.664 5.57-38.464 8.77-19.6 6.4-19.686 5.359-23.386 12.459-.7 1.5-1.7 5.5-2 8.8l-.7 6.1-5.5.7c-3 .4-5.6.5-5.8.3-1.3-1.4 6.5-51 12.8-81.5 3.9-18.7 4.5-19.9 17.7-33.6 15.4-16.1 29.4-23.7 58.8-32.2 67-19.1 129.4-25.8 188.7-19.9zM956.3 570c2.1 11.5 7.1 29.7 11.7 42.3 2.9 7.9 5.6 17.7 6.5 23 1.8 11.4 4.2 39.9 4.4 52.8.3 14.4-3.2 45.1-7.9 69.4-1 5.5-2.6 14.8-3.4 20.7-1.1 7.2-2.6 12.7-4.6 17-1.7 3.5-3 7.2-3 8.2 0 1-1.4 4.9-3.1 8.5-5.2 11-6.7 14.5-7.3 17.3-.6 2.7-7.9 12-10 12.7-2.4.8-4.9 3.9-7.6 9.2-1.6 3-3.5 6.1-4.4 6.8-.8.7-1.8 2.5-2.1 4.1-.3 1.6-1.7 3.5-2.9 4.4-2.8 1.8-3.5 4.7-4.5 19.4-.6 7.9-1.3 11.8-2.3 12.9-1.5 1.4-7.5 3.2-11 3.3-2 0-3.8-4.9-3.8-10.8 0-2.5-1.5-9-3.4-14.6s-3.8-11.7-4.2-13.6c-1.1-5.8-6.9-17.5-10.7-21.7-2-2.1-6-5.2-8.9-6.8-2.9-1.6-11.4-6.6-18.8-11.2s-14.1-8.3-14.8-8.3c-.8 0-4.4-1.3-8.1-3-3.7-1.6-12-4-18.3-5.4-7.6-1.7-12.9-3.4-15.3-5.1-2.1-1.4-4.6-2.5-5.5-2.5-1 0-6.4-1.3-12.1-3-16.9-4.9-21.4-4.1-31.6 5.4-7.5 6.9-11 7.8-17.3 4.6-2.4-1.2-6.1-2.8-8.3-3.6-2.2-.8-6.6-3.1-9.6-5.1-8-5.3-10.1-5.1-26.2 2.9-10.3 5.1-14.8 6.8-19.5 7.3-3.4.4-7.5 1.3-9 2.2-1.6.8-5.4 2.3-8.5 3.2-3.1 1-7.6 3.2-10.1 4.9-5.3 3.6-27.4 14.4-36.8 17.9-3.6 1.4-7.6 3.5-9 4.8-1.4 1.2-5.3 3.7-8.8 5.4-3.4 1.7-8 4.7-10.1 6.6-6.6 6-14 25.5-12.7 33.6.8 5.2-.2 9.6-2.5 10.2-1.6.4-1.9 1.5-1.9 6.5 0 7.5-.6 9.2-3.4 9.2-1.6 0-3-1.5-5.4-6-1.8-3.3-4.3-6.6-5.4-7.4-1.9-1.3-4.8-9.6-4.8-13.5 0-.8-1.1-2.6-2.3-4-2.3-2.5-8.8-13.2-13.4-22.1-1.3-2.5-3.2-5.3-4.3-6.2-4.2-3.5-22.4-39-25.8-50.4-1.2-3.9-2.8-7.7-3.6-8.3-2.9-2.4-7.6-25.1-10.8-51.6-1.7-14.6-1.7-65.1.1-81 .7-6.6 2.6-19.7 4.2-29 1.6-9.4 4.1-23.5 5.4-31.5 1.4-7.9 2.9-14.8 3.3-15.1.4-.4 2.8-1 5.3-1.4l4.7-.7-.2 6.4c-.1 6.6 1.2 9.8 4 9.8 1.3 0 11.9-7.7 16.9-12.5 7.3-6.6 7.7-6.7 33.8-7.9 36-1.5 82.4 1.2 101.1 6 8.4 2.1 14.2 6 16.8 11.3 5.3 11-1.8 45.7-14.8 72.6-2.4 4.9-4.4 9.5-4.4 10.2 0 2.2 4.7 3.8 6.6 2.3 6-5 19.7-44.8 21.9-63.3.8-7.2 5.1-13.3 11.5-16.4 8.8-4.2 40.9-5.5 49.5-1.9 4.5 1.9 6.9 6.4 10.8 20.2 5.5 19.2 13.8 37.7 24.2 53.9 3.8 6 7.4 7.4 9.5 3.5.9-1.6-.1-3.8-5.6-13.1-12.9-21.5-21-43.1-22.1-58.9-.5-6.8-.2-9.2 1.1-11.7 3.3-6.5 7.3-8.3 39.6-17.4 25.3-7.1 73.3-10.1 91-5.5 12.6 3.2 22.9 8.9 36.5 20.2 9.1 7.6 12.8 9.5 14.8 7.5 1.3-1.3 1.5-9.3.3-23.4l-.8-10.8 10.6.6.9 4.5zm-338.5 1c5.6.7 10.1 1.4 9.9 1.6-.2.2-8.3-.1-18.1-.7s-26.3-.9-36.6-.7c-10.4.2-18.7.1-18.5-.1 2.3-2.2 45.3-2.3 63.3-.1zm-148.2 71.2c.7 21.4 1 60.6.4 79.5-.1 5.1 1.6 34.3 2.6 42 .6 6 .6 6.3-1.5 6.3-1.1 0-3-.9-4.1-2-1.7-1.7-2-3.4-2.1-12.8-.1-16.7.1-20.4 2.2-40.2 2.2-21.9 2.4-37.5.5-56-3.1-29.5-3-45.6.2-43.6.5.3 1.3 12.4 1.8 26.8zm532.8-24.7c3.1 2.9 3.4 7.1 1.1 15.5-.9 3-2.2 12.5-3 21.1-1.4 14.7-2.3 19-5.9 28.4-2 5.2-2 12.3 0 23.7 1.3 7.6 1.4 10.5.4 17.2-1.2 8.4-9 33.1-11.1 35-1.9 1.8-.3-8.9 3.7-25.9 3.4-14.1 3.6-15.5 2.8-24.5-.4-5.2-.7-15.1-.6-22 .2-6.9-.1-19.2-.6-27.3-1.1-17.5-.4-22.1 5.1-33.5 1.1-2.3 2-5.6 1.9-7.2-.1-3.8 2.4-4 6.2-.5zM752 859.8c0 4.7 4.7 5.4 9.7 1.6l3.4-2.6 3.9 3.1c3.8 3 7 4 7 2.2 0-1.8 3.2-2 5.6-.4 2 1.3 3.2 1.4 6.2.5 5.2-1.5 12.2-2.2 12.2-1.1 0 .5 1.1 1.6 2.4 2.4 1.9 1.3 2.8 1.3 4.9.4 2.1-1 3.1-.9 4.9.3 1.3.8 3.5 1.8 5 2.2 1.5.3 3.7 1.6 4.8 2.8 2 2.1 2.1 2.2 4.9.5 3.6-2.1 5.1-2.2 5.1-.2 0 1.8 3.1 3.5 6.4 3.5 1.6 0 3.9 1.3 6 3.5 2 1.9 4.3 3.5 5.3 3.5 2.5 0 4 1.2 4.4 3.5.3 1.2 1.4 2.1 2.7 2.3 1.2.2 3 1.4 3.8 2.8.9 1.3 2.2 2.4 2.8 2.4 2.9 0 4.8 2.9 6.2 9.5 1 4.8 2.4 8.2 4.5 10.7 2.2 2.8 3.5 6.2 4.9 12.4 1 4.8 2.4 9 3.1 9.4 1.7 1.1.4 8.6-2.4 13.5-1.5 2.6-4.2 5.2-7.7 7.3l-5.5 3.3.3 4.7c.4 6-1.8 9.2-7.3 10.1-4.4.7-5.1 1.6-6.5 9.3-.6 3.1-2 6.8-3.1 8.2-1.7 2.2-2.4 2.4-4.6 1.5-2.2-.8-3.2-.5-6.4 1.6-3.1 2.2-4.1 2.5-5.9 1.5-3-1.6-4.5-.8-7.5 3.9-2.3 3.7-2.7 4-5 2.9-3.3-1.5-1.718 4.243-4.409.9-.8-.9-3.7 2.516-6.8 2.116-3-.3-12.648 4.116-13.948 3.116-8.913-.634 2.867.263-11.48-1.691l-11.311-6.224-5.986-9.957c4.3-4.6 2.638-13.039 6.62-16.995 8.886-4.514 21.775-3.254 23.975-5.954 1.8-2 6.275-5.315 7.675-5.615 1.1-.3 3.695-10.386 3.695-11.286 0-.9 1.16-9.61-20.34-8.31-53.4 3.1-60.7 3.4-76.8 2.2-8.8-.6-20.7-1.3-26.5-1.7l-10.6-.6-4.2 4.6c-6.1 6.6-6.7 8.5-5.1 14.2.8 2.7 6.926 1.769 7.252 4.658.087.772 7.284 2.6 8.384 4.6 1.6 2.9 6.456 1.506 10.481 4.348 4.008 2.83 16.475 8.511 17.475 9.011 1.8 1 5.395 11.183 1.995 16.283-3 4.4-22.476 5.867-26.376 7.367-3.4 1.3-9.638 3.07-12.538 6.57L655.7 1017.1l-1.8-3.1c-1.9-3.1-3.4-3.6-5.8-2.1-1 .7-2.4.2-4.4-1.5-3.1-2.6-6.2-3-11.7-1.4-1.9.5-3.8.6-4.2.2-.5-.5-1.3-4.6-1.8-9.1-1.2-10.8-4.2-16.5-8.8-16.9-2.7-.3-3.6-.9-4.4-3.3-1-3-2.6-3.7-4.5-1.8-.8.8-1.5.4-2.7-1.3-1.3-1.8-2.6-2.3-5.8-2.3-4.7 0-4.6.2-6.7-12.4-.8-5.2-1.7-7-4.1-9.2-3.7-3.4-4.1-8.2-.9-9.9 1.5-.9 2-2 1.8-4.3-.4-4.6.9-7.6 3.5-8.3 1.6-.4 3.2-2.3 4.9-5.9 1.5-2.9 3.3-5.5 4.2-5.9 2-.7 1.9-5.3-.1-15.1-.9-4.2-1.3-8.3-1-9.1.3-.8 2.1-2.2 4-3.1 2.1-.9 3.6-2.5 3.8-3.7.2-1.1 1.2-2.2 2.3-2.5 1.1-.2 2.4-1 3-1.8 1-1.3 3-2 6.2-2.2.6-.1 1.4-.9 1.7-1.9.5-1.4 1.9-1.7 7.8-1.9 4-.1 8.4-.3 9.8-.3 1.4-.1 4.8.2 7.6.5 5 .7 5 .7 6-2.5 1.2-4.3 3.7-5.9 6.4-4.3 1.1.8 2.1.9 2.5.3.3-.5 2-.7 3.7-.3 2.6.5 3.5.2 5.6-2.3 1.3-1.6 2.6-2.4 2.8-1.8.3.6 1.1 1.9 1.8 2.9 1.2 1.7 1.4 1.7 4 0 2.3-1.6 3-1.6 5.2-.4 2.3 1.2 2.7 1.1 4.2-.9 1.3-1.7 2.9-2.3 7-2.5 2.9-.2 5.7-.8 6.2-1.3.7-.7 5-.9 11-.7 8.6.4 10 .2 10-1.1 0-2.1 1.9-2 4.2.1 1.6 1.4 2.3 1.5 3.8.5 2.4-1.5 7.6-1.6 8.5-.2 1.1 1.9 4.1 1 7-2 3.3-3.4 4.5-3.8 4.5-1.2zm-197.4 164.5c.8 2.2 2.5 4.7 3.8 5.8 1.3 1.1 4.7 3.5 5.1 5.6.4 2 5 5.5 6.5 7.8 1.248 1.717 8.74 7.527 15.524 13.224.5 1.4 7.054 6.285 11.675 10.758 2.25 2.177 5.338 4.646 9.178 7.032 9.105 7.5 19.669 12.567 25.869 15.667 2.3 1.1 34.199 13.349 35.799 14.049 12.323 7.134 26.347 5.073 30.847 7.173 5.2 2.5 23.493 2.941 37.508 3.215 29.704.58 9.21.543 27.809-1.979 5.761-.781 14.796-1.625 38.04-8.189 6.122-1.729 14.606-5.606 19.766-8.812 3.228-.72 23.326-12.507 24.626-13.907.619-.671 30.398-24.529 30.785-25.159.593-.841 19.362-23.069 20.294-24.577 12.795-20.677 21.398-36.396 23.123-30.314.702 2.477 12.957 107.119 14.757 121.719l2 16.4-38.1 26.8c-20.9 14.8-66.5 47-101.4 71.7-34.9 24.6-64 44.6-64.6 44.3-.7-.2-12.6-8.9-26.6-19.3-26.2-19.5-89.5-66.4-140.4-104.1-15.9-11.8-29.6-22-30.3-22.7-1.1-1-1.1-3.1-.2-11.1 1.2-11.3 12-112.6 12-113.4 0-1.1 5.3 8.8 6.6 12.3z"/>
<path d="M829.5 589c-8 1.1-17.5 4.4-23.3 8-5.7 3.6-4.4 3.9 2.9.6 10.7-4.7 14.6-5.1 44.9-5.1 27.1 0 28.9.1 36 2.4 9.6 3 14.5 5.5 18.8 9.7 1.9 1.8 3.9 3.1 4.4 2.8 1.6-1-7.8-9.2-14.1-12.3-10.9-5.6-15.5-6.3-40.6-6.6-12.6-.2-25.7 0-29 .5zM565.5 593.5c-11.6 3-23.6 8.8-30.9 15.1-4.5 3.9-2.3 3.9 3.6 0 6.4-4.3 15.7-8.1 25.7-10.7 6-1.5 11-1.9 25.8-1.9 29.9 0 42.9 2.1 50.6 8.2 4.4 3.5 5.6 3.3 2.7-.5-2.7-3.4-10.9-7.4-19.5-9.3-10.4-2.3-49.9-2.9-58-.9z"/>
<path d="M830.9 605.3c-7.8 2.4-34 15.2-39.6 19.4-4.2 3.1-4.2 5.7-.2 7.3 2.5 1.1 4.6 1.1 11.4 0 5.1-.8 11.4-1.1 15.9-.7 4.2.4 7.6.3 7.6-.2 0-1.4-2.7-2.2-13.3-4l-9.7-1.7 7.7-4.2c4.3-2.3 10.2-5.5 13.1-7.2l5.3-3.1-.7 4.8c-.7 5.6.8 11.9 3.6 15.6 2.4 3.1 10.5 4.7 23.6 4.7 5 0 9.5.4 10.2 1 .8.7.9.7.3-.1-.6-.7.2-2.7 2.2-5.6 2.9-4 3.2-5.2 3.2-11.8v-7.3l8.7 4.5c4.9 2.5 8.5 4.9 8.2 5.4-.3.5-.2.9.3.8 1.7-.3 3.3.1 3.3.9 0 .5-4.2 2.5-9.4 4.6-5.1 2-10.2 4.3-11.2 5.1-1.8 1.4-1.8 1.4-.1 1.5 1 0 5.3-.9 9.5-1.9 4.3-1.1 10.9-2.5 14.7-3.1 11-1.6 12.5-2.1 12.5-3.5 0-4-16.3-13.1-35-19.6-8.4-2.9-11-3.3-22-3.6-10.7-.2-13.6 0-20.1 2zm24.7 8.2c-.4 1 .5 1.7 2.7 2.4 3 .9 3 .9.6 1-1.5.1-3.2.8-3.9 1.6-2 2.4-3 1.8-2.4-1.3.6-2.7.3-2.9-3.8-3.9l-4.3-1.1 5.9-.1c4.7-.1 5.7.2 5.2 1.4zM581 608c-11.7 2.8-32.6 12.2-39.9 18-7.3 5.8-6.9 7.5 2.2 8.9 3.9.6 12.1 2.3 18 3.7 10.1 2.4 14.1 2.6 10.7.3-.8-.5-5.9-2.6-11.2-4.7-5.4-2-9.6-4.1-9.5-4.7.2-.5 4.8-3.3 10.3-6.2l9.9-5.2-.3 6.7c-.2 6 .1 7.3 2.9 12.1l3.1 5.3 13.1-.5c15.9-.6 19.9-1.7 22.1-6.3 2.3-5 2.9-10.4 1.6-15.3-.6-2.4-.9-4.5-.6-4.8.3-.3 6.6 2.8 14.1 6.9l13.7 7.5-7.8 1.2c-9.4 1.4-15.4 3.1-15.4 4.3 0 .5 3 .6 7 .2 4.3-.4 10-.2 15 .7 10.2 1.6 15.5.6 15.5-3.1 0-3.1-4-5.9-22.1-14.8-16.9-8.4-27-11.2-39.8-11.1-5 .1-10.7.5-12.6.9zm17.3 10c-.4 1.6 0 2 2.3 2.1 2.3.1 2.4.3.7.6-1.2.2-2.7 1.1-3.3 1.9-2 2.4-3.3 1.6-2.6-1.6.5-2.7.3-3-2.2-3-1.5 0-3.4-.5-4.2-1-1.1-.7.1-1 4.2-1 5.1 0 5.6.2 5.1 2zM794.5 732.6c5.9 8.9 12.5 20.6 14.3 25.7 5.2 13.9.7 23.9-14.8 33-3.5 2.1-4 2.7-2.3 2.7 4 0 12.9-3.9 17.2-7.6 9.7-8.3 11.2-20.1 4.4-34.1-2.8-5.6-14.7-19.4-18.6-21.5l-2.1-1.1 1.9 2.9zM660.2 740.6c-9.8 9.9-14.4 18.9-14.3 28.6 0 11 7.8 20.5 19.8 24.3 7.4 2.3 9.6 1.6 4.2-1.4-12.2-6.7-17.4-13.9-17.3-23.7 0-5.1.8-7.7 4.2-14.8 2.3-4.7 5.5-10.7 7.3-13.2 1.7-2.5 2.8-4.8 2.5-5.1-.3-.3-3.2 2.1-6.4 5.3z"/>
<path d="M775.5 778.7c-4.9.7-13.7 3.3-19 5.8-15.9 7.2-21.4 7.3-41.6.5-12.9-4.4-16-5.1-22.7-5.1-6.9 0-15.7 1.8-18.9 3.8-.6.5 3.9.8 10 .9 12.1 0 11.2-.2 33.2 9 7.2 3 10.6 3.8 17.3 4.2 9.5.5 15.2-1.1 28.7-8.4 9.8-5.2 17.8-7.6 25.8-7.6 5.9-.1 6.1-.1 3.2-1.3-3.6-1.5-11.8-2.4-16-1.8zM777 886.8c-2.5.1-12.4 1.4-22 2.8-22.9 3.3-41.8 4.2-91.2 4.6-22.3.2-40 .6-39.3 1.1.8.4 5.9 1.4 11.4 2.2 7.6 1.2 21.4 1.6 57.3 1.8l47.3.2 18.5-3.4c17.1-3.1 20.3-3.4 42-3.6 23.4-.2 26.9-.7 36.4-4.4 4.5-1.8 2.7-2-4.4-.5-7.7 1.6-18.3 1.8-31.7.4-13-1.3-18.9-1.6-24.3-1.2zM765.962 934.1c-21.6 3.4-50.9 3.5-68.9.2-6-1-2.6 1.4 5.7 4.1 12.2 4 19.9 4.9 36.1 4.3 10.5-.4 16.6-1.1 21.8-2.6 8.9-2.6 18.3-6.3 18.3-7.4 0-.4-.3-.6-.7-.6-.5.1-6 1-12.3 2z"/></g></svg>
