<svg version="1.0" xmlns="http://www.w3.org/2000/svg" width="700.000000pt" height="700.000000pt" viewBox="0 0 100 100" preserveAspectRatio="xMidYMid meet">
 <style>.im { fill: #000000; } @media (prefers-color-scheme: dark) { .im { fill: #fff; } } </style>
<g class="im" transform="translate(0.000000,700.000000) scale(0.100000,-0.100000)" stroke="none">
<path d="M3288 5805 c-1 -1 -23 -5 -48 -8 -191 -24 -360 -88 -633 -241 -72
-40 -155 -77 -215 -96 -110 -33 -109 -33 -240 -163 -117 -115 -171 -196 -213
-317 -18 -52 -47 -118 -65 -146 -50 -78 -50 -126 -4 -229 10 -22 37 -85 60
-140 23 -55 55 -124 72 -154 29 -53 29 -53 9 -68 -13 -9 -21 -25 -21 -44 0
-24 6 -32 29 -40 23 -8 30 -19 41 -64 7 -30 17 -55 22 -55 4 0 11 0 15 0 4 0
7 17 5 38 -1 20 1 52 4 70 4 28 8 31 20 21 11 -9 11 -15 3 -25 -8 -10 -9 -45
-3 -121 10 -120 10 -289 3 -463 -7 -146 0 -175 46 -191 30 -11 35 -19 45 -63
7 -28 23 -100 36 -161 22 -101 47 -219 59 -284 15 -80 105 -339 127 -368 43
-55 56 -115 44 -208 -2 -11 -6 -58 -10 -105 -5 -47 -9 -98 -11 -115 -2 -16 -6
-66 -10 -110 -3 -44 -8 -91 -10 -104 -2 -13 -7 -60 -10 -105 l-6 -81 93 -69
c390 -291 894 -659 903 -659 11 0 134 83 410 278 77 54 190 134 250 176 284
201 364 261 360 272 -2 7 -7 41 -10 77 -2 36 -7 76 -9 90 -2 14 -7 54 -11 90
-4 36 -8 74 -10 85 -1 11 -8 67 -14 125 -7 58 -14 116 -16 130 -20 115 -17
158 13 232 16 40 35 100 41 133 7 33 19 80 28 104 26 72 58 197 68 266 4 29
34 183 56 295 6 30 24 85 40 121 52 117 63 167 64 284 1 61 6 126 12 145 7 19
14 60 18 90 3 30 8 69 11 85 14 69 8 118 -16 137 l-23 19 45 67 c25 37 64 101
86 142 22 41 64 118 94 172 66 118 72 162 32 241 -14 28 -28 68 -31 87 -15
118 -92 236 -228 347 -70 56 -145 103 -269 167 -59 30 -124 69 -143 86 -170
155 -400 263 -663 312 -51 9 -314 20 -322 13z m337 -720 c174 -27 231 -39 310
-61 102 -29 232 -80 256 -100 8 -8 19 -14 23 -14 4 0 33 -18 65 -40 58 -39 59
-40 70 -104 6 -35 29 -116 50 -178 21 -63 41 -131 45 -151 7 -35 6 -37 -20
-37 -15 0 -50 13 -78 29 -92 53 -186 79 -273 75 -76 -3 -390 -62 -449 -84 -47
-18 -74 -50 -74 -86 0 -22 -5 -34 -17 -38 -20 -6 -199 -19 -278 -20 -49 -1
-53 2 -40 35 10 26 -41 77 -88 90 -67 18 -308 67 -362 74 -133 16 -224 0 -335
-61 -36 -19 -55 -38 -67 -65 -13 -28 -24 -39 -41 -39 -23 0 -24 2 -18 61 4 33
15 106 26 162 11 56 22 118 25 137 14 83 30 116 90 176 75 75 171 124 315 159
58 14 121 30 140 35 19 5 62 14 95 20 33 6 71 12 85 15 14 3 61 8 105 11 44 4
81 8 83 9 6 5 317 -3 357 -10z m846 -778 c10 -45 33 -128 68 -242 31 -99 33
-325 6 -505 -2 -19 -7 -51 -10 -70 -28 -185 -85 -348 -145 -414 -71 -79 -97
-129 -104 -197 -7 -63 -22 -89 -52 -89 -16 0 -22 9 -28 47 -8 44 -46 164 -62
195 -36 69 -175 150 -366 212 -202 65 -209 66 -275 20 l-54 -37 -52 22 c-29
13 -66 29 -83 36 -28 13 -36 11 -83 -11 -29 -13 -78 -31 -110 -40 -60 -17
-291 -126 -381 -180 -67 -39 -96 -86 -110 -175 -20 -121 -22 -129 -30 -134
-11 -7 -59 58 -72 97 -12 35 -73 143 -96 170 -51 61 -155 295 -172 386 -24
137 -32 371 -18 522 7 70 33 233 47 290 4 19 8 40 9 45 1 6 12 11 25 13 21 3
24 -1 25 -29 0 -17 3 -33 6 -36 7 -7 52 21 88 55 21 19 42 26 94 31 119 13
342 6 494 -15 65 -9 108 -34 120 -69 18 -55 -11 -199 -66 -323 -20 -45 -21
-54 -8 -59 8 -3 21 3 29 13 18 25 61 152 81 239 24 108 49 126 179 130 126 3
125 4 179 -139 64 -172 109 -248 136 -231 6 4 -4 33 -29 79 -49 90 -93 218
-93 270 1 21 8 46 18 57 27 30 196 77 334 94 72 8 222 6 257 -4 17 -5 34 -7
36 -5 3 3 49 -25 102 -61 54 -36 100 -63 104 -60 3 4 5 37 4 73 -3 82 0 92 26
85 14 -3 23 -19 32 -56z m208 -191 c10 -12 9 -51 -4 -126 -2 -14 -7 -45 -10
-70 -3 -25 -11 -67 -18 -95 -7 -27 -12 -61 -10 -75 9 -79 5 -141 -16 -209 -12
-40 -24 -71 -27 -68 -3 3 2 40 11 83 11 52 16 119 15 194 -5 249 -4 269 15
325 20 58 26 63 44 41z m-2490 -128 c1 -73 0 -130 -2 -128 -8 9 -16 260 -8
260 4 0 9 -60 10 -132z m6 -378 c4 -74 8 -150 10 -167 2 -23 -1 -33 -11 -33
-21 0 -27 43 -21 158 4 59 7 125 7 146 0 83 9 24 15 -104z m1315 -630 c0 -14
33 -13 48 2 8 8 15 8 26 -1 8 -7 54 -13 110 -15 68 -2 103 -8 121 -20 14 -10
34 -16 43 -15 46 7 202 -109 202 -149 0 -12 4 -24 10 -27 5 -3 19 -37 31 -75
19 -62 19 -71 5 -98 -8 -16 -26 -36 -40 -45 -17 -11 -24 -24 -21 -38 3 -15 -4
-25 -26 -37 -19 -11 -33 -30 -40 -53 -10 -33 -16 -37 -66 -50 -30 -7 -57 -19
-60 -26 -3 -7 -14 -13 -24 -13 -12 0 -23 -10 -29 -25 l-9 -24 -78 39 c-51 26
-81 36 -87 30 -11 -11 -56 26 -56 47 0 15 44 28 60 18 5 -3 28 1 49 11 30 13
44 28 60 64 24 53 25 68 7 92 -20 27 -56 35 -126 28 -36 -4 -154 -7 -263 -6
l-199 2 -19 -27 c-23 -32 -24 -49 -4 -75 8 -10 15 -26 15 -36 0 -20 53 -66 86
-74 13 -3 24 -10 24 -14 0 -5 8 -6 19 -3 26 7 36 -14 11 -22 -11 -3 -20 -13
-20 -21 0 -8 -22 -30 -49 -49 -27 -20 -52 -41 -55 -48 -3 -9 -7 -9 -13 -1 -10
14 -59 28 -96 28 -22 -1 -29 5 -36 33 -11 39 -57 84 -118 114 -24 11 -43 25
-43 31 0 6 -6 8 -13 5 -7 -3 -21 1 -31 9 -11 7 -23 11 -27 8 -5 -3 -11 8 -14
23 -4 15 -13 43 -21 62 -19 43 -11 77 31 137 31 44 34 52 29 99 -6 49 -4 53
30 83 42 36 87 51 151 48 36 -2 50 2 60 16 8 13 21 17 39 14 14 -2 28 -1 31 3
2 5 24 7 47 5 23 -1 48 1 54 7 15 12 71 20 171 22 45 1 85 5 89 10 11 10 24 9
24 -3z m804 -770 c3 -41 8 -86 11 -100 4 -26 12 -96 21 -185 3 -27 7 -61 10
-75 2 -14 7 -59 10 -100 l5 -75 -292 -205 c-313 -219 -361 -253 -538 -374
-100 -69 -116 -77 -135 -67 -11 7 -109 77 -216 156 -107 80 -306 227 -443 328
l-247 182 5 75 c4 41 8 89 9 105 10 91 18 163 21 185 4 29 18 169 18 188 0 18
17 15 24 -5 3 -10 14 -30 24 -44 10 -14 34 -64 52 -110 19 -46 49 -100 67
-119 18 -19 47 -65 65 -102 47 -97 86 -155 115 -170 14 -7 39 -28 56 -45 17
-18 42 -33 55 -34 96 -3 136 -22 181 -84 30 -40 63 -57 80 -39 10 10 162 11
176 1 12 -9 87 5 212 41 69 19 171 72 215 111 18 16 67 45 109 65 56 27 80 44
87 63 5 15 19 34 30 44 23 20 82 164 109 264 22 85 80 219 90 208 4 -4 11 -42
14 -83z"/>
<path d="M3873 4248 c-46 -7 -123 -33 -123 -43 0 -2 19 3 43 11 30 11 84 16
194 17 l152 1 61 -32 c34 -17 57 -25 50 -17 -7 8 -35 26 -64 39 -43 21 -68 26
-157 28 -59 2 -129 0 -156 -4z"/>
<path d="M2650 4230 c-41 -8 -117 -41 -145 -64 -16 -13 -11 -13 20 2 83 41
137 50 266 47 88 -1 135 -7 163 -19 21 -9 41 -16 44 -16 14 0 -36 28 -68 39
-40 13 -228 20 -280 11z"/>
<path d="M3903 4179 c-58 -11 -217 -92 -221 -113 -3 -15 7 -17 84 -15 87 2 94
10 20 24 l-40 7 54 29 c29 16 57 29 62 29 4 0 8 -15 8 -32 0 -18 4 -38 8 -45
11 -18 51 -29 110 -32 51 -2 53 -2 67 33 8 19 15 45 15 56 0 11 2 20 5 20 9 0
75 -45 75 -51 0 -3 -18 -14 -40 -24 -61 -27 -56 -33 13 -17 34 7 72 16 85 18
38 8 24 30 -40 61 -107 53 -180 67 -265 52z m105 -54 c2 -1 -3 -5 -11 -8 -7
-3 -19 4 -26 15 -11 18 -10 18 11 7 13 -6 24 -13 26 -14z"/>
<path d="M2691 4154 c-71 -19 -175 -75 -179 -96 -2 -13 10 -19 55 -28 111 -22
110 -22 68 0 -60 31 -61 36 -17 59 23 12 43 21 44 21 2 0 5 -12 6 -27 1 -16 7
-40 13 -55 10 -25 14 -26 67 -22 32 2 67 7 80 10 27 5 43 41 37 83 l-3 31 61
-32 62 -32 -44 -13 c-24 -7 -45 -14 -47 -16 -2 -1 32 -4 76 -5 108 -4 115 12
25 62 -122 68 -210 85 -304 60z m103 -40 c8 -21 -9 -25 -21 -5 -9 14 -8 18 3
18 7 0 15 -6 18 -13z"/>
<path d="M3736 3533 c66 -110 59 -159 -31 -228 -18 -14 -16 -14 20 0 84 32
108 97 68 182 -13 27 -77 103 -88 103 -2 0 12 -26 31 -57z"/>
<path d="M3062 3523 c-51 -73 -58 -121 -26 -171 14 -22 70 -62 87 -62 16 0 5
17 -23 33 -59 35 -68 98 -26 173 29 52 30 54 17 54 -5 0 -18 -12 -29 -27z"/>
<path d="M3545 3344 c-93 -33 -118 -34 -189 -12 -80 24 -155 32 -186 19 l-25
-10 30 -2 c17 -1 36 -1 42 0 7 1 41 -9 75 -23 73 -29 135 -44 164 -40 11 2 55
19 97 38 42 20 79 36 82 36 3 0 17 0 32 0 36 0 22 11 -19 15 -18 2 -64 -8
-103 -21z"/>
<path d="M3579 2856 c-11 -11 -217 -21 -421 -21 -211 0 -252 -5 -167 -20 77
-14 464 -13 544 1 44 8 134 16 200 19 188 8 194 20 11 22 -90 2 -165 1 -167
-1z"/>
<path d="M3576 2643 c-12 -12 -222 -18 -292 -7 -28 4 -45 3 -41 -2 5 -5 12 -9
15 -9 4 -1 31 -7 60 -14 71 -18 206 -9 263 17 30 14 37 20 21 19 -13 -1 -24
-3 -26 -4z"/>
</g>
</svg>
